{"title":"Wu Seng (2007)","uid":14159494,"size":1156421933,"categoryP":"video","categoryS":"movies","magnet":"?xt=urn:btih:c8037640a057556d218895c3017ccfc8a1a0d3ee&amp;dn=Wu+Seng+%282007%29&amp;tr=udp%3A%2F%2Ftracker.leechers-paradise.org%3A6969&amp;tr=udp%3A%2F%2Fzer0day.ch%3A1337&amp;tr=udp%3A%2F%2Fopen.demonii.com%3A1337&amp;tr=udp%3A%2F%2Ftracker.coppersurfer.tk%3A6969&amp;tr=udp%3A%2F%2Fexodus.desync.com%3A6969","seeders":0,"leechers":0,"uploader":null,"files":1,"time":1459702514,"description":"Martial arts action film Wu Seng was made in commemoration of the 25th anniversary of Jet Li classic The Shaolin Temple. Set in the 14th century during the early years of the Ming Dynasty, Wu Seng stars Hong Kong action star Terry Fan Siu Wong as Shaolin-trained general Yang Wu. After Yongle usurped the throne from Emperor Jianwen, loyal general Yang Wu secretly rescued child prince Zhu Wenkui and placed him in the care of the Wenchang Temple. Ten years later, Wenkui has grown up to be a strong, young man and Yang Wu is ready to put his plans to overthrow Yongle into action. When the Emperor discovers the plot, however, he sends an army of assassins after Yang Wu and Wenkui. They flee to Dafo Temple where Yang and the temple's monks make their final stand against the emperor's men.\r\n \nhttps://www.themoviedb.org/movie/75706-wu-seng\r\n\r\nFormat                                   : Matroska\r\nFormat version                           : Version 2\r\nFile size                                : 1.08 GiB\r\nDuration                                 : 1h 23mn\r\nOverall bit rate                         : 1 857 Kbps\r\nWriting application                      : HandBrake 0.9.5\r\nWriting library                          : libmkv 0.6.4.1\r\n\r\nVideo\r\nID                                       : 1\r\nFormat                                   : AVC\r\nFormat/Info                              : Advanced Video Codec\r\nFormat profile                           :   \r\nFormat settings, CABAC                   : Yes\r\nFormat settings, ReFrames                : 4 frames\r\nCodec ID                                 : V_MPEG4/ISO/AVC\r\nDuration                                 : 1h 23mn\r\nBit rate                                 : 1 400 Kbps\r\nWidth                                    : 720 pixels\r\nHeight                                   : 416 pixels\r\nDisplay aspect ratio                     : 16:9\r\nFrame rate mode                          : Constant\r\nFrame rate                               : 29.970 fps\r\nColor space                              : YUV\r\nChroma subsampling                       : 4:2:0\r\nBit depth                                : 8 bits\r\nScan type                                : Progressive\r\nBits/(Pixel*Frame)                       : 0.156\r\nStream size                              : 815 MiB (74%)\r\nWriting library                          : x264 core 112\r\nEncoding settings                        : cabac=1 / ref=2 / deblock=1:0:0 / analyse=0x1:0x111 / me=hex / subme=6 / psy=1 / psy_rd=1.00:0.00 / mixed_ref=0 / me_range=16 / chroma_me=1 / trellis=0 / 8x8dct=0 / cqm=0 / deadzone=21,11 / fast_pskip=1 / chroma_qp_offset=-2 / threads=3 / sliced_threads=0 / nr=0 / decimate=1 / interlaced=0 / constrained_intra=0 / bframes=2 / b_pyramid=2 / b_adapt=1 / b_bias=0 / direct=1 / weightb=0 / open_gop=0 / weightp=2 / keyint=300 / keyint_min=29 / scenecut=40 / intra_refresh=0 / rc_lookahead=40 / rc=2pass / mbtree=1 / bitrate=1400 / ratetol=1.0 / qcomp=0.60 / qpmin=3 / qpmax=51 / qpstep=4 / cplxblur=20.0 / qblur=0.5 / ip_ratio=1.40 / aq=1:1.00\r\nLanguage                                 : English\r\nDefault                                  : Yes\r\nForced                                   : No\r\nColor range                              : Limited\r\nColor primaries                          : BT.601 NTSC\r\nTransfer characteristics                 : BT.709\r\nMatrix coefficients                      : BT.601\r\n\r\nAudio\r\nID                                       : 2\r\nFormat                                   : AC-3\r\nFormat/Info                              : Audio Coding 3\r\nMode extension                           : CM (complete main)\r\nFormat settings, Endianness              : Big\r\nCodec ID                                 : A_AC3\r\nDuration                                 : 1h 23mn\r\nBit rate mode                            : Constant\r\nBit rate                                 : 448 Kbps\r\nChannel(s)                               : 6 channels\r\nChannel positions                        : Front: L C R, Side: L R, LFE\r\nSampling rate                            : 48.0 KHz\r\nFrame rate                               : 31.250 fps (1536 spf)\r\nCompression mode                         : Lossy\r\nStream size                              : 266 MiB (24%)\r\nLanguage                                 : Chinese\r\nDefault                                  : Yes\r\nForced                                   : No\r\n\r\nText\r\nID                                       : 3\r\nFormat                                   : VobSub\r\nCodec ID                                 : S_VOBSUB\r\nCodec ID/Info                            : Picture based subtitle format used on DVDs\r\nLanguage                                 : English\r\nDefault                                  : No\r\nForced                                   : No","torrent":{"xt":"urn:btih:c8037640a057556d218895c3017ccfc8a1a0d3ee","amp;dn":"Wu+Seng+%282007%29","amp;tr":["udp%3A%2F%2Ftracker.leechers-paradise.org%3A6969","udp%3A%2F%2Fzer0day.ch%3A1337","udp%3A%2F%2Fopen.demonii.com%3A1337","udp%3A%2F%2Ftracker.coppersurfer.tk%3A6969","udp%3A%2F%2Fexodus.desync.com%3A6969"],"infoHash":"c8037640a057556d218895c3017ccfc8a1a0d3ee","infoHashBuffer":{"type":"Buffer","data":[200,3,118,64,160,87,85,109,33,136,149,195,1,124,207,200,161,160,211,238]},"announce":[],"urlList":[]}}